<svg width="354" height="82" viewBox="0 0 354 82" fill="none" xmlns="http://www.w3.org/2000/svg">
<path d="M205.483 36.0782C205.483 37.3731 205.182 38.5567 204.581 39.629C204 40.681 203.108 41.5308 201.905 42.1782C200.722 42.8054 199.268 43.119 197.545 43.119H194.627V50.3419H188.732V28.9463H197.545C199.249 28.9463 200.692 29.2498 201.874 29.8568C203.077 30.4637 203.979 31.3034 204.581 32.3757C205.182 33.448 205.483 34.6822 205.483 36.0782ZM196.973 38.3847C198.637 38.3847 199.469 37.6159 199.469 36.0782C199.469 34.5203 198.637 33.7414 196.973 33.7414H194.627V38.3847H196.973ZM222.287 46.8519H214.769L213.625 50.3419H207.431L215.16 28.9463H221.956L229.655 50.3419H223.43L222.287 46.8519ZM220.813 42.2996L218.528 35.3802L216.272 42.2996H220.813ZM243.335 50.3419L239.125 42.4514H238.492V50.3419H232.599V28.9463H241.89C243.595 28.9463 245.039 29.2498 246.221 29.8568C247.404 30.4435 248.297 31.2629 248.898 32.315C249.5 33.3468 249.8 34.5102 249.8 35.8051C249.8 37.2618 249.399 38.5465 248.598 39.6593C247.815 40.7519 246.662 41.5308 245.139 41.9961L249.92 50.3419H243.335ZM238.492 38.3847H241.41C242.212 38.3847 242.813 38.1925 243.214 37.8081C243.615 37.4236 243.816 36.8673 243.816 36.1389C243.816 35.451 243.605 34.9148 243.184 34.5304C242.783 34.1258 242.191 33.9235 241.41 33.9235H238.492V38.3847ZM259.397 33.711V37.2011H266.163V41.723H259.397V45.5772H267.066V50.3419H253.503V28.9463H267.066V33.711H259.397ZM290.639 50.3419H284.745L276.895 38.3847V50.3419H271.002V28.9463H276.895L284.745 41.0553V28.9463H290.639V50.3419ZM310.988 28.9463V33.6807H305.335V50.3419H299.44V33.6807H293.847V28.9463H310.988ZM322.191 50.5544C319.726 50.5544 317.7 49.9676 316.117 48.7942C314.532 47.6005 313.68 45.901 313.561 43.6956H319.845C319.906 44.4442 320.127 44.9905 320.507 45.3345C320.888 45.6784 321.38 45.8504 321.981 45.8504C322.522 45.8504 322.963 45.7189 323.304 45.4558C323.665 45.1726 323.845 44.7882 323.845 44.3026C323.845 43.6754 323.554 43.1898 322.973 42.8459C322.391 42.5019 321.449 42.1175 320.146 41.6927C318.763 41.2273 317.64 40.7822 316.778 40.3573C315.936 39.9122 315.194 39.2749 314.553 38.4454C313.931 37.5956 313.62 36.493 313.62 35.1374C313.62 33.7616 313.962 32.5881 314.643 31.617C315.324 30.6256 316.267 29.877 317.47 29.3712C318.673 28.8654 320.035 28.6125 321.56 28.6125C324.026 28.6125 325.991 29.1992 327.453 30.3727C328.938 31.5259 329.729 33.1546 329.83 35.2588H323.424C323.404 34.6114 323.203 34.1258 322.823 33.8021C322.462 33.4784 321.99 33.3165 321.409 33.3165C320.968 33.3165 320.607 33.448 320.327 33.711C320.046 33.974 319.906 34.3483 319.906 34.8339C319.906 35.2386 320.056 35.5926 320.357 35.8961C320.678 36.1794 321.069 36.4323 321.53 36.6548C321.99 36.8571 322.672 37.1202 323.575 37.4439C324.918 37.9092 326.02 38.3746 326.883 38.8399C327.764 39.285 328.516 39.9223 329.138 40.7519C329.779 41.5611 330.101 42.593 330.101 43.8474C330.101 45.122 329.779 46.2651 329.138 47.2768C328.516 48.2884 327.604 49.0875 326.401 49.6743C325.218 50.261 323.815 50.5544 322.191 50.5544Z" fill="#797979"/>
<path d="M92.9972 29.3683V47.0269H98.9964V49.9467H89.9209V29.3683H92.9972Z" fill="#858585"/>
<path d="M106.344 29.3683H103.268V49.9467H106.344V29.3683Z" fill="#858585"/>
<path d="M112.601 49.9466V27.9689L127.474 43.6714V29.3682H130.555V51.2007L115.677 35.5418V49.9466H112.601Z" fill="#858585"/>
<path d="M147.499 39.2313H155.926V39.9092C155.926 41.4538 155.743 42.8241 155.384 44.0152C155.033 45.1191 154.439 46.1505 153.598 47.1092C151.703 49.259 149.298 50.334 146.371 50.334C143.52 50.334 141.072 49.293 139.038 47.2157C137.002 45.1288 135.985 42.6207 135.985 39.6962C135.985 36.7086 137.022 34.1763 139.09 32.0991C141.158 30.0121 143.677 28.9664 146.644 28.9664C148.237 28.9664 149.726 29.2955 151.113 29.954C152.432 30.6126 153.733 31.6778 155.009 33.1546L152.816 35.2754C151.141 33.0287 149.102 31.9054 146.702 31.9054C144.542 31.9054 142.732 32.6559 141.274 34.1569C139.81 35.6337 139.081 37.4785 139.081 39.701C139.081 41.9912 139.897 43.8844 141.523 45.366C143.044 46.7412 144.701 47.4336 146.476 47.4336C147.993 47.4336 149.351 46.9155 150.56 45.889C151.765 44.848 152.442 43.6036 152.581 42.1558H147.494V39.2313H147.499Z" fill="#858585"/>
<path d="M160.135 39.5655C160.135 36.67 161.185 34.1812 163.292 32.0991C165.39 30.0219 167.91 28.981 170.851 28.981C173.761 28.981 176.25 30.0316 178.329 32.1283C180.416 34.2248 181.459 36.7427 181.459 39.6865C181.459 42.645 180.412 45.1579 178.314 47.2158C176.207 49.2882 173.669 50.3195 170.693 50.3195C168.058 50.3195 165.696 49.3996 163.599 47.5596C161.287 45.526 160.135 42.8629 160.135 39.5655ZM163.24 39.6043C163.24 41.88 163.998 43.749 165.51 45.216C167.017 46.6832 168.755 47.4143 170.727 47.4143C172.868 47.4143 174.672 46.6686 176.145 45.1725C177.614 43.6618 178.352 41.8219 178.352 39.6526C178.352 37.4592 177.628 35.6193 176.174 34.1328C174.729 32.6415 172.939 31.8909 170.809 31.8909C168.687 31.8909 166.892 32.6366 165.433 34.1328C163.969 35.6144 163.24 37.435 163.24 39.6043Z" fill="#858585"/>
<path d="M70.5918 54.4738C68.3601 56.0717 65.3989 57.6017 62.7064 58.1344C62.7305 58.2457 62.74 58.7928 62.74 59.892C62.74 60.841 62.7257 62.192 62.7064 64.027C62.6873 66.1042 59.894 64.4918 57.2351 62.4777C54.8211 60.6473 52.5173 58.4927 52.5173 58.4927C43.5905 57.2967 33.9438 53.2633 31.4769 43.6084C30.9298 41.4634 30.8722 39.2022 31.2082 36.9798C31.6161 34.2053 32.6528 31.5035 34.1358 29.1842C34.275 28.9664 34.4237 28.7533 34.5677 28.5353C34.9469 27.9883 35.35 27.4701 35.7964 26.9762C36.8186 25.7948 37.9945 24.7441 39.2663 23.8387C47.9196 17.6603 61.0074 16.8759 69.9535 22.7976C70.2367 22.9816 70.5102 23.1753 70.779 23.3738C71.6669 24.0226 72.4828 24.7538 73.2027 25.5527C73.8169 26.2161 74.3689 26.9278 74.8633 27.6783C76.1064 29.5377 76.9894 31.6391 77.4838 33.8421C79.1491 41.1778 76.8406 49.9853 70.5918 54.4738Z" fill="#F89721"/>
<g opacity="0.95">
<g opacity="0.95">
<path opacity="0.95" d="M73.2153 25.5577C72.193 26.7391 71.0172 27.7899 69.7454 28.6953C61.0921 34.8785 47.9995 35.6581 39.0581 29.7363C38.775 29.5522 38.5014 29.3586 38.2279 29.1601C37.3448 28.5113 36.5289 27.7802 35.8042 26.9813C36.8265 25.7998 38.0023 24.7491 39.2742 23.8436C47.9273 17.6653 61.0153 16.8809 69.9614 22.8026C70.2445 22.9866 70.5181 23.1803 70.7917 23.3788C71.6795 24.0276 72.4907 24.7588 73.2153 25.5577Z" fill="#F15C31"/>
</g>
</g>
<g opacity="0.76">
<g opacity="0.76">
<path opacity="0.76" d="M70.5897 54.4742C68.3579 56.072 65.3968 57.602 62.7043 58.1347C62.7283 58.2461 62.7379 58.7931 62.7379 59.8923C57.0459 57.636 52.2081 53.6945 50.5619 47.2547C50.0147 45.1097 49.9572 42.8485 50.2932 40.6261C50.7443 37.595 51.9393 34.6366 53.6575 32.1817C54.9341 30.3465 56.5467 28.7729 58.3561 27.485C61.7204 25.0785 65.747 23.4952 69.9562 22.8028C70.2393 22.9868 70.5128 23.1804 70.7817 23.379C74.2325 25.8968 76.5505 29.6832 77.4863 33.8521C79.147 41.1781 76.8385 49.9856 70.5897 54.4742Z" fill="#F37323"/>
</g>
</g>
<g opacity="0.64">
<g opacity="0.64">
<path opacity="0.64" d="M57.2383 62.478C54.8243 60.6478 52.5206 58.493 52.5206 58.493C43.5985 57.2971 33.947 53.2637 31.4801 43.6088C30.933 41.4639 30.8754 39.2026 31.2113 36.9802C38.0696 35.915 45.3407 37.2272 50.8408 41.2411C54.2916 43.7589 56.6096 47.5453 57.5455 51.7143C58.3278 55.1812 58.227 58.9676 57.2383 62.478Z" fill="#F2673B"/>
</g>
</g>
<path d="M65.6046 51.152H55.8618C54.6812 51.152 53.5677 50.847 52.5982 50.3095C52.0319 49.9996 51.5232 49.6026 51.0769 49.1523C49.8481 47.9176 49.0898 46.2035 49.0898 44.32V36.8343C49.0898 36.9166 49.0898 36.999 49.0947 37.0861C49.1379 38.6645 49.6274 40.3253 50.5248 41.6182C50.5872 41.7005 50.6448 41.7876 50.7072 41.87C50.7505 41.9281 50.7985 41.9814 50.8512 42.0346C51.2064 42.4559 51.6239 42.8093 52.0798 43.0998C52.8574 43.6034 53.7453 43.9326 54.6571 44.1021C55.0603 44.1747 55.4586 44.228 55.8666 44.2618H55.8713C56.5001 44.3152 57.124 44.3248 57.7527 44.3298H58.1271C58.9526 44.3248 59.7541 44.3248 60.5652 44.5428C61.717 44.8477 62.7872 45.4724 63.6272 46.3246C64.2415 46.9395 64.7358 47.6804 65.0766 48.4986V48.5035C65.4174 49.3121 65.6046 50.203 65.6046 51.152Z" fill="white"/>
<path d="M55.8637 31.4744V43.5793C54.467 43.5793 53.1568 43.1484 52.0769 42.4124C52.0482 42.3931 52.0193 42.3736 51.9906 42.3542C51.6594 42.1219 51.3523 41.8653 51.0739 41.5796C50.9971 41.5021 50.9203 41.4246 50.8483 41.3423C50.8002 41.2842 50.7523 41.2358 50.7043 41.1777C49.7637 40.0689 49.1685 38.6453 49.0965 37.0862C49.0917 36.9748 49.0869 36.8587 49.0869 36.7472V24.6423C52.1105 24.6423 54.6734 26.6421 55.542 29.402C55.7532 30.0557 55.8637 30.7529 55.8637 31.4744Z" fill="white"/>
<path d="M65.6054 51.147H55.8627C54.682 51.147 53.5686 50.8419 52.5991 50.3044C58.3152 49.3796 58.1232 44.3294 58.1232 44.3294L55.8627 44.2617C56.4914 44.315 57.1153 44.3247 57.7488 44.3294C58.704 44.3343 59.6302 44.2956 60.5613 44.5425C61.7131 44.8476 62.7786 45.4721 63.6233 46.3195C64.2375 46.9344 64.7319 47.6753 65.0727 48.4935V48.4984C65.4614 49.9947 65.6054 51.147 65.6054 51.147Z" fill="white"/>
<path d="M49.0869 36.8343C49.0869 36.9166 49.0869 36.999 49.0918 37.0861H49.0869V36.8343Z" fill="white"/>
<path d="M55.5469 29.402C49.5332 29.6586 49.0965 37.0862 49.0965 37.0862C49.0917 36.9748 49.0869 36.8587 49.0869 36.7472V24.6423C52.1105 24.6423 54.6734 26.6421 55.5469 29.402Z" fill="white"/>
</svg>
